<?xml version="1.0" encoding="UTF-8" standalone="no"?><!DOCTYPE svg PUBLIC "-//W3C//DTD SVG 1.1//EN" "http://www.w3.org/Graphics/SVG/1.1/DTD/svg11.dtd"><!-- Generated by graphviz version 2.40.1 (20161225.0304)
 --><!-- Title: G Pages: 1 --><svg xmlns="http://www.w3.org/2000/svg" xmlns:xlink="http://www.w3.org/1999/xlink" width="956pt" height="260pt" viewBox="0.00 0.00 955.98 260.00">
<g id="graph0" class="graph" transform="scale(1 1) rotate(0) translate(4 256)">
<title>G</title>
<polygon fill="#ffffff" stroke="transparent" points="-4,4 -4,-256 951.978,-256 951.978,4 -4,4"/>
<!-- data.aws_ami.debian12 -->
<g id="node1" class="node">
<title>data.aws_ami.debian12</title>
<polygon fill="none" stroke="#000000" points="362.6876,-252 214.8842,-252 214.8842,-216 362.6876,-216 362.6876,-252"/>
<text text-anchor="middle" x="288.7859" y="-229.8" font-family="sans-serif" font-size="14.00" fill="#000000">data.aws_ami.debian12</text>
</g>
<!-- aws_instance.debian_ec2 -->
<g id="node2" class="node">
<title>aws_instance.debian_ec2</title>
<polygon fill="none" stroke="#000000" points="608.608,-171 450.8392,-171 450.8392,-135 608.608,-135 608.608,-171"/>
<text text-anchor="middle" x="529.7236" y="-148.8" font-family="sans-serif" font-size="14.00" fill="#000000">aws_instance.debian_ec2</text>
</g>
<!-- aws_instance.debian_ec2&#45;&gt;data.aws_ami.debian12 -->
<g id="edge1" class="edge">
<title>aws_instance.debian_ec2-&gt;data.aws_ami.debian12</title>
<path fill="none" stroke="#000000" d="M486.1282,-171.0871C458.5705,-182.184 422.0619,-196.2727 389.1166,-207 382.7208,-209.0825 376.0595,-211.1312 369.3458,-213.1117"/>
<polygon fill="#000000" stroke="#000000" points="368.1304,-209.8198 359.4967,-215.9607 370.0755,-216.5441 368.1304,-209.8198"/>
</g>
<!-- aws_key_pair.ec2_key_pair -->
<g id="node4" class="node">
<title>aws_key_pair.ec2_key_pair</title>
<polygon fill="none" stroke="#000000" points="374.942,-198 202.6298,-198 202.6298,-162 374.942,-162 374.942,-198"/>
<text text-anchor="middle" x="288.7859" y="-175.8" font-family="sans-serif" font-size="14.00" fill="#000000">aws_key_pair.ec2_key_pair</text>
</g>
<!-- aws_instance.debian_ec2&#45;&gt;aws_key_pair.ec2_key_pair -->
<g id="edge2" class="edge">
<title>aws_instance.debian_ec2-&gt;aws_key_pair.ec2_key_pair</title>
<path fill="none" stroke="#000000" d="M450.8316,-161.8408C429.9795,-164.1775 407.2331,-166.7266 385.553,-169.1561"/>
<polygon fill="#000000" stroke="#000000" points="384.8925,-165.7081 375.3445,-170.3001 385.6721,-172.6645 384.8925,-165.7081"/>
</g>
<!-- aws_security_group.main_sg -->
<g id="node7" class="node">
<title>aws_security_group.main_sg</title>
<polygon fill="none" stroke="#000000" points="378.4686,-144 199.1032,-144 199.1032,-108 378.4686,-108 378.4686,-144"/>
<text text-anchor="middle" x="288.7859" y="-121.8" font-family="sans-serif" font-size="14.00" fill="#000000">aws_security_group.main_sg</text>
</g>
<!-- aws_instance.debian_ec2&#45;&gt;aws_security_group.main_sg -->
<g id="edge3" class="edge">
<title>aws_instance.debian_ec2-&gt;aws_security_group.main_sg</title>
<path fill="none" stroke="#000000" d="M450.8316,-144.1592C431.0174,-141.9388 409.4927,-139.5267 388.7979,-137.2076"/>
<polygon fill="#000000" stroke="#000000" points="389.0439,-133.7133 378.7163,-136.0778 388.2643,-140.6698 389.0439,-133.7133"/>
</g>
<!-- aws_subnet.main_subnet -->
<g id="node8" class="node">
<title>aws_subnet.main_subnet</title>
<polygon fill="none" stroke="#000000" points="367.1475,-90 210.4243,-90 210.4243,-54 367.1475,-54 367.1475,-90"/>
<text text-anchor="middle" x="288.7859" y="-67.8" font-family="sans-serif" font-size="14.00" fill="#000000">aws_subnet.main_subnet</text>
</g>
<!-- aws_instance.debian_ec2&#45;&gt;aws_subnet.main_subnet -->
<g id="edge4" class="edge">
<title>aws_instance.debian_ec2-&gt;aws_subnet.main_subnet</title>
<path fill="none" stroke="#000000" d="M486.1282,-134.9129C458.5705,-123.816 422.0619,-109.7273 389.1166,-99 382.7208,-96.9175 376.0595,-94.8688 369.3458,-92.8883"/>
<polygon fill="#000000" stroke="#000000" points="370.0755,-89.4559 359.4967,-90.0393 368.1304,-96.1802 370.0755,-89.4559"/>
</g>
<!-- aws_internet_gateway.main_igw -->
<g id="node3" class="node">
<title>aws_internet_gateway.main_igw</title>
<polygon fill="none" stroke="#000000" points="388.9476,-36 188.6242,-36 188.6242,0 388.9476,0 388.9476,-36"/>
<text text-anchor="middle" x="288.7859" y="-13.8" font-family="sans-serif" font-size="14.00" fill="#000000">aws_internet_gateway.main_igw</text>
</g>
<!-- aws_vpc.main_vpc -->
<g id="node9" class="node">
<title>aws_vpc.main_vpc</title>
<polygon fill="none" stroke="#000000" points="137.9188,-90 14.5364,-90 14.5364,-54 137.9188,-54 137.9188,-90"/>
<text text-anchor="middle" x="76.2276" y="-67.8" font-family="sans-serif" font-size="14.00" fill="#000000">aws_vpc.main_vpc</text>
</g>
<!-- aws_internet_gateway.main_igw&#45;&gt;aws_vpc.main_vpc -->
<g id="edge5" class="edge">
<title>aws_internet_gateway.main_igw-&gt;aws_vpc.main_vpc</title>
<path fill="none" stroke="#000000" d="M217.7115,-36.0563C195.2136,-41.7718 170.3429,-48.0902 147.8096,-53.8147"/>
<polygon fill="#000000" stroke="#000000" points="146.8051,-50.4587 137.9748,-56.3132 148.5288,-57.2432 146.8051,-50.4587"/>
</g>
<!-- tls_private_key.ec2_key -->
<g id="node10" class="node">
<title>tls_private_key.ec2_key</title>
<polygon fill="none" stroke="#000000" points="152.6835,-198 -.2283,-198 -.2283,-162 152.6835,-162 152.6835,-198"/>
<text text-anchor="middle" x="76.2276" y="-175.8" font-family="sans-serif" font-size="14.00" fill="#000000">tls_private_key.ec2_key</text>
</g>
<!-- aws_key_pair.ec2_key_pair&#45;&gt;tls_private_key.ec2_key -->
<g id="edge6" class="edge">
<title>aws_key_pair.ec2_key_pair-&gt;tls_private_key.ec2_key</title>
<path fill="none" stroke="#000000" d="M202.3303,-180C189.3612,-180 175.9839,-180 163.008,-180"/>
<polygon fill="#000000" stroke="#000000" points="162.7033,-176.5001 152.7032,-180 162.7032,-183.5001 162.7033,-176.5001"/>
</g>
<!-- aws_route_table.main_route_table -->
<g id="node5" class="node">
<title>aws_route_table.main_route_table</title>
<polygon fill="none" stroke="#000000" points="634.4377,-38 425.0095,-38 425.0095,-2 634.4377,-2 634.4377,-38"/>
<text text-anchor="middle" x="529.7236" y="-15.8" font-family="sans-serif" font-size="14.00" fill="#000000">aws_route_table.main_route_table</text>
</g>
<!-- aws_route_table.main_route_table&#45;&gt;aws_internet_gateway.main_igw -->
<g id="edge7" class="edge">
<title>aws_route_table.main_route_table-&gt;aws_internet_gateway.main_igw</title>
<path fill="none" stroke="#000000" d="M425.096,-19.1315C416.5158,-19.0603 407.8265,-18.9881 399.2062,-18.9166"/>
<polygon fill="#000000" stroke="#000000" points="399.158,-15.4162 389.1293,-18.8329 399.0999,-22.4159 399.158,-15.4162"/>
</g>
<!-- aws_route_table_association.main_association -->
<g id="node6" class="node">
<title>aws_route_table_association.main_association</title>
<polygon fill="none" stroke="#000000" points="947.8019,-61 670.5067,-61 670.5067,-25 947.8019,-25 947.8019,-61"/>
<text text-anchor="middle" x="809.1543" y="-38.8" font-family="sans-serif" font-size="14.00" fill="#000000">aws_route_table_association.main_association</text>
</g>
<!-- aws_route_table_association.main_association&#45;&gt;aws_route_table.main_route_table -->
<g id="edge8" class="edge">
<title>aws_route_table_association.main_association-&gt;aws_route_table.main_route_table</title>
<path fill="none" stroke="#000000" d="M670.2576,-31.5674C661.6883,-30.862 653.1149,-30.1564 644.6664,-29.461"/>
<polygon fill="#000000" stroke="#000000" points="644.685,-25.9507 634.4316,-28.6185 644.1107,-32.9272 644.685,-25.9507"/>
</g>
<!-- aws_route_table_association.main_association&#45;&gt;aws_subnet.main_subnet -->
<g id="edge9" class="edge">
<title>aws_route_table_association.main_association-&gt;aws_subnet.main_subnet</title>
<path fill="none" stroke="#000000" d="M670.3887,-50.7334C577.2738,-55.9226 457.4138,-62.6024 377.0945,-67.0786"/>
<polygon fill="#000000" stroke="#000000" points="376.8006,-63.5894 367.0109,-67.6405 377.1902,-70.5786 376.8006,-63.5894"/>
</g>
<!-- aws_security_group.main_sg&#45;&gt;aws_vpc.main_vpc -->
<g id="edge10" class="edge">
<title>aws_security_group.main_sg-&gt;aws_vpc.main_vpc</title>
<path fill="none" stroke="#000000" d="M217.7115,-107.9437C195.2136,-102.2282 170.3429,-95.9098 147.8096,-90.1853"/>
<polygon fill="#000000" stroke="#000000" points="148.5288,-86.7568 137.9748,-87.6868 146.8051,-93.5413 148.5288,-86.7568"/>
</g>
<!-- aws_subnet.main_subnet&#45;&gt;aws_vpc.main_vpc -->
<g id="edge11" class="edge">
<title>aws_subnet.main_subnet-&gt;aws_vpc.main_vpc</title>
<path fill="none" stroke="#000000" d="M210.5426,-72C190.0871,-72 168.1393,-72 148.0366,-72"/>
<polygon fill="#000000" stroke="#000000" points="148.0217,-68.5001 138.0217,-72 148.0217,-75.5001 148.0217,-68.5001"/>
</g>
</g>
</svg>