<?xml version="1.0" encoding="UTF-8" standalone="no"?><!DOCTYPE svg PUBLIC "-//W3C//DTD SVG 1.1//EN" "http://www.w3.org/Graphics/SVG/1.1/DTD/svg11.dtd"><!-- Generated by graphviz version 2.40.1 (20161225.0304)
 --><!-- Title: G Pages: 1 --><svg xmlns="http://www.w3.org/2000/svg" xmlns:xlink="http://www.w3.org/1999/xlink" width="1897pt" height="702pt" viewBox="0.00 0.00 1896.81 701.90">
<g id="graph0" class="graph" transform="scale(1 1) rotate(0) translate(4 697.8963)">
<title>G</title>
<polygon fill="#ffffff" stroke="transparent" points="-4,4 -4,-697.8963 1892.8072,-697.8963 1892.8072,4 -4,4"/>
<g id="clust1" class="cluster">
<title>cluster_module.ec2</title>
<polygon fill="none" stroke="#000000" points="939.2493,-338.8963 939.2493,-685.8963 1880.8072,-685.8963 1880.8072,-338.8963 939.2493,-338.8963"/>
<text text-anchor="middle" x="1410.0282" y="-669.2963" font-family="sans-serif" font-size="14.00" fill="#000000">module.ec2</text>
</g>
<g id="clust2" class="cluster">
<title>cluster_module.network</title>
<polygon fill="none" stroke="#000000" points="8,-51.8963 8,-330.8963 1504.1808,-330.8963 1504.1808,-51.8963 8,-51.8963"/>
<text text-anchor="middle" x="756.0904" y="-314.2963" font-family="sans-serif" font-size="14.00" fill="#000000">module.network</text>
</g>
<!-- module.ec2.data.aws_ami.debian12 -->
<g id="node1" class="node">
<title>module.ec2.data.aws_ami.debian12</title>
<polygon fill="none" stroke="#000000" points="1403.2616,-490.8963 1255.4582,-490.8963 1255.4582,-454.8963 1403.2616,-454.8963 1403.2616,-490.8963"/>
<text text-anchor="middle" x="1329.3599" y="-468.6963" font-family="sans-serif" font-size="14.00" fill="#000000">data.aws_ami.debian12</text>
</g>
<!-- module.ec2.aws_iam_instance_profile.aws_instance_profile -->
<g id="node2" class="node">
<title>module.ec2.aws_iam_instance_profile.aws_instance_profile</title>
<polygon fill="none" stroke="#000000" points="1845.3949,-652.8963 1559.5931,-652.8963 1559.5931,-616.8963 1845.3949,-616.8963 1845.3949,-652.8963"/>
<text text-anchor="middle" x="1702.494" y="-630.6963" font-family="sans-serif" font-size="14.00" fill="#000000">aws_iam_instance_profile.aws_instance_profile</text>
</g>
<!-- module.ec2.aws_iam_role.iam_role_ec2 -->
<g id="node3" class="node">
<title>module.ec2.aws_iam_role.iam_role_ec2</title>
<polygon fill="none" stroke="#000000" points="1416.5782,-598.8963 1242.1416,-598.8963 1242.1416,-562.8963 1416.5782,-562.8963 1416.5782,-598.8963"/>
<text text-anchor="middle" x="1329.3599" y="-576.6963" font-family="sans-serif" font-size="14.00" fill="#000000">aws_iam_role.iam_role_ec2</text>
</g>
<!-- module.ec2.aws_iam_instance_profile.aws_instance_profile&#45;&gt;module.ec2.aws_iam_role.iam_role_ec2 -->
<g id="edge1" class="edge">
<title>module.ec2.aws_iam_instance_profile.aws_instance_profile-&gt;module.ec2.aws_iam_role.iam_role_ec2</title>
<path fill="none" stroke="#000000" d="M1577.9864,-616.8776C1528.7241,-609.7483 1472.947,-601.6763 1426.7238,-594.9868"/>
<polygon fill="#000000" stroke="#000000" points="1427.1078,-591.506 1416.7096,-593.5376 1426.1052,-598.4339 1427.1078,-591.506"/>
</g>
<!-- module.ec2.aws_iam_role_policy.aws_iam_role_policy -->
<g id="node4" class="node">
<title>module.ec2.aws_iam_role_policy.aws_iam_role_policy</title>
<polygon fill="none" stroke="#000000" points="1832.5408,-598.8963 1572.4472,-598.8963 1572.4472,-562.8963 1832.5408,-562.8963 1832.5408,-598.8963"/>
<text text-anchor="middle" x="1702.494" y="-576.6963" font-family="sans-serif" font-size="14.00" fill="#000000">aws_iam_role_policy.aws_iam_role_policy</text>
</g>
<!-- module.ec2.aws_iam_role_policy.aws_iam_role_policy&#45;&gt;module.ec2.aws_iam_role.iam_role_ec2 -->
<g id="edge2" class="edge">
<title>module.ec2.aws_iam_role_policy.aws_iam_role_policy-&gt;module.ec2.aws_iam_role.iam_role_ec2</title>
<path fill="none" stroke="#000000" d="M1572.2518,-580.8963C1524.4649,-580.8963 1471.2378,-580.8963 1426.8184,-580.8963"/>
<polygon fill="#000000" stroke="#000000" points="1426.6054,-577.3964 1416.6054,-580.8963 1426.6054,-584.3964 1426.6054,-577.3964"/>
</g>
<!-- module.ec2.aws_iam_role_policy_attachment.aws_iam_policy_attack -->
<g id="node5" class="node">
<title>module.ec2.aws_iam_role_policy_attachment.aws_iam_policy_attack</title>
<polygon fill="none" stroke="#000000" points="1872.6206,-544.8963 1532.3674,-544.8963 1532.3674,-508.8963 1872.6206,-508.8963 1872.6206,-544.8963"/>
<text text-anchor="middle" x="1702.494" y="-522.6963" font-family="sans-serif" font-size="14.00" fill="#000000">aws_iam_role_policy_attachment.aws_iam_policy_attack</text>
</g>
<!-- module.ec2.aws_iam_role_policy_attachment.aws_iam_policy_attack&#45;&gt;module.ec2.aws_iam_role.iam_role_ec2 -->
<g id="edge3" class="edge">
<title>module.ec2.aws_iam_role_policy_attachment.aws_iam_policy_attack-&gt;module.ec2.aws_iam_role.iam_role_ec2</title>
<path fill="none" stroke="#000000" d="M1577.9864,-544.9151C1528.7241,-552.0443 1472.947,-560.1164 1426.7238,-566.8058"/>
<polygon fill="#000000" stroke="#000000" points="1426.1052,-563.3588 1416.7096,-568.2551 1427.1078,-570.2866 1426.1052,-563.3588"/>
</g>
<!-- module.ec2.aws_instance.bastion_ec2 -->
<g id="node6" class="node">
<title>module.ec2.aws_instance.bastion_ec2</title>
<polygon fill="none" stroke="#000000" points="1782.999,-436.8963 1621.989,-436.8963 1621.989,-400.8963 1782.999,-400.8963 1782.999,-436.8963"/>
<text text-anchor="middle" x="1702.494" y="-414.6963" font-family="sans-serif" font-size="14.00" fill="#000000">aws_instance.bastion_ec2</text>
</g>
<!-- module.ec2.aws_instance.bastion_ec2&#45;&gt;module.ec2.data.aws_ami.debian12 -->
<g id="edge4" class="edge">
<title>module.ec2.aws_instance.bastion_ec2-&gt;module.ec2.data.aws_ami.debian12</title>
<path fill="none" stroke="#000000" d="M1621.9888,-430.547C1560.3957,-439.4608 1475.7081,-451.7168 1413.2819,-460.7511"/>
<polygon fill="#000000" stroke="#000000" points="1412.4665,-457.3326 1403.0709,-462.2289 1413.4691,-464.2604 1412.4665,-457.3326"/>
</g>
<!-- module.network.aws_subnet.bastion_subnet -->
<g id="node25" class="node">
<title>module.network.aws_subnet.bastion_subnet</title>
<polygon fill="none" stroke="#000000" points="1106.2379,-297.8963 937.6261,-297.8963 937.6261,-261.8963 1106.2379,-261.8963 1106.2379,-297.8963"/>
<text text-anchor="middle" x="1021.932" y="-275.6963" font-family="sans-serif" font-size="14.00" fill="#000000">aws_subnet.bastion_subnet</text>
</g>
<!-- module.ec2.aws_instance.bastion_ec2&#45;&gt;module.network.aws_subnet.bastion_subnet -->
<g id="edge5" class="edge">
<title>module.ec2.aws_instance.bastion_ec2-&gt;module.network.aws_subnet.bastion_subnet</title>
<path fill="none" stroke="#000000" d="M1621.6757,-421.0297C1591.2253,-418.205 1557.7974,-410.3718 1532.1808,-391.8963 1510.2542,-376.0822 1526.4688,-353.197 1504.1808,-337.8963 1441.204,-294.6627 1238.3217,-309.4983 1162.539,-299.8963 1147.59,-298.0022 1131.7654,-295.8727 1116.335,-293.728"/>
<polygon fill="#000000" stroke="#000000" points="1116.6538,-290.2386 1106.2652,-292.3189 1115.6836,-297.1711 1116.6538,-290.2386"/>
</g>
<!-- module.ec2.aws_instance.debian_ec2 -->
<g id="node7" class="node">
<title>module.ec2.aws_instance.debian_ec2</title>
<polygon fill="none" stroke="#000000" points="1781.3784,-382.8963 1623.6096,-382.8963 1623.6096,-346.8963 1781.3784,-346.8963 1781.3784,-382.8963"/>
<text text-anchor="middle" x="1702.494" y="-360.6963" font-family="sans-serif" font-size="14.00" fill="#000000">aws_instance.debian_ec2</text>
</g>
<!-- module.ec2.aws_instance.debian_ec2&#45;&gt;module.ec2.data.aws_ami.debian12 -->
<g id="edge6" class="edge">
<title>module.ec2.aws_instance.debian_ec2-&gt;module.ec2.data.aws_ami.debian12</title>
<path fill="none" stroke="#000000" d="M1623.4042,-362.6077C1592.4955,-365.2945 1558.283,-373.0706 1532.1808,-391.8963 1510.2542,-407.7105 1526.1389,-430.1259 1504.1808,-445.8963 1478.1845,-464.567 1444.3808,-472.5106 1413.4351,-475.3669"/>
<polygon fill="#000000" stroke="#000000" points="1412.774,-471.9068 1403.0654,-476.1487 1413.3003,-478.887 1412.774,-471.9068"/>
</g>
<!-- module.ec2.aws_key_pair.ec2_key_pair -->
<g id="node8" class="node">
<title>module.ec2.aws_key_pair.ec2_key_pair</title>
<polygon fill="none" stroke="#000000" points="1415.516,-382.8963 1243.2038,-382.8963 1243.2038,-346.8963 1415.516,-346.8963 1415.516,-382.8963"/>
<text text-anchor="middle" x="1329.3599" y="-360.6963" font-family="sans-serif" font-size="14.00" fill="#000000">aws_key_pair.ec2_key_pair</text>
</g>
<!-- module.ec2.aws_instance.debian_ec2&#45;&gt;module.ec2.aws_key_pair.ec2_key_pair -->
<g id="edge7" class="edge">
<title>module.ec2.aws_instance.debian_ec2-&gt;module.ec2.aws_key_pair.ec2_key_pair</title>
<path fill="none" stroke="#000000" d="M1623.3619,-364.8963C1565.6081,-364.8963 1487.0182,-364.8963 1425.6228,-364.8963"/>
<polygon fill="#000000" stroke="#000000" points="1425.5355,-361.3964 1415.5355,-364.8963 1425.5355,-368.3964 1425.5355,-361.3964"/>
</g>
<!-- module.ec2.aws_ssm_parameter.cw_agent -->
<g id="node12" class="node">
<title>module.ec2.aws_ssm_parameter.cw_agent</title>
<polygon fill="none" stroke="#000000" points="1422.5076,-436.8963 1236.2122,-436.8963 1236.2122,-400.8963 1422.5076,-400.8963 1422.5076,-436.8963"/>
<text text-anchor="middle" x="1329.3599" y="-414.6963" font-family="sans-serif" font-size="14.00" fill="#000000">aws_ssm_parameter.cw_agent</text>
</g>
<!-- module.ec2.aws_instance.debian_ec2&#45;&gt;module.ec2.aws_ssm_parameter.cw_agent -->
<g id="edge8" class="edge">
<title>module.ec2.aws_instance.debian_ec2-&gt;module.ec2.aws_ssm_parameter.cw_agent</title>
<path fill="none" stroke="#000000" d="M1623.3619,-376.3483C1567.7359,-384.3985 1492.7808,-395.246 1432.4767,-403.9732"/>
<polygon fill="#000000" stroke="#000000" points="1431.9429,-400.5139 1422.5474,-405.4102 1432.9456,-407.4418 1431.9429,-400.5139"/>
</g>
<!-- module.network.aws_flow_log.vpc_log -->
<g id="node16" class="node">
<title>module.network.aws_flow_log.vpc_log</title>
<polygon fill="none" stroke="#000000" points="835.4074,-149.8963 691.5686,-149.8963 691.5686,-113.8963 835.4074,-113.8963 835.4074,-149.8963"/>
<text text-anchor="middle" x="763.488" y="-127.6963" font-family="sans-serif" font-size="14.00" fill="#000000">aws_flow_log.vpc_log</text>
</g>
<!-- module.ec2.aws_instance.debian_ec2&#45;&gt;module.network.aws_flow_log.vpc_log -->
<g id="edge9" class="edge">
<title>module.ec2.aws_instance.debian_ec2-&gt;module.network.aws_flow_log.vpc_log</title>
<path fill="none" stroke="#000000" d="M1694.6481,-346.766C1672.745,-298.6956 1605.8032,-168.038 1504.1808,-114.8963 1388.5192,-54.4131 1045.6085,-66.8302 917.325,-90.8963 900.4521,-94.0617 897.7353,-99.8548 881.325,-104.8963 869.8831,-108.4115 857.6909,-111.7005 845.6507,-114.6896"/>
<polygon fill="#000000" stroke="#000000" points="844.4861,-111.3705 835.5924,-117.1283 846.1355,-118.1734 844.4861,-111.3705"/>
</g>
<!-- module.network.aws_iam_role_policy.vpc_log -->
<g id="node18" class="node">
<title>module.network.aws_iam_role_policy.vpc_log</title>
<polygon fill="none" stroke="#000000" points="856.1164,-95.8963 670.8596,-95.8963 670.8596,-59.8963 856.1164,-59.8963 856.1164,-95.8963"/>
<text text-anchor="middle" x="763.488" y="-73.6963" font-family="sans-serif" font-size="14.00" fill="#000000">aws_iam_role_policy.vpc_log</text>
</g>
<!-- module.ec2.aws_instance.debian_ec2&#45;&gt;module.network.aws_iam_role_policy.vpc_log -->
<g id="edge10" class="edge">
<title>module.ec2.aws_instance.debian_ec2-&gt;module.network.aws_iam_role_policy.vpc_log</title>
<path fill="none" stroke="#000000" d="M1697.1029,-346.6398C1679.8205,-291.8772 1620.0398,-128.9634 1504.1808,-66.8963 1281.6051,52.3402 964.7605,-17.788 829.1626,-56.9527"/>
<polygon fill="#000000" stroke="#000000" points="827.9415,-53.6631 819.3274,-59.8313 829.9079,-60.3813 827.9415,-53.6631"/>
</g>
<!-- module.network.aws_route_table_association.bastion_subnet_association -->
<g id="node21" class="node">
<title>module.network.aws_route_table_association.bastion_subnet_association</title>
<polygon fill="none" stroke="#000000" points="1496.0019,-290.8963 1162.7179,-290.8963 1162.7179,-254.8963 1496.0019,-254.8963 1496.0019,-290.8963"/>
<text text-anchor="middle" x="1329.3599" y="-268.6963" font-family="sans-serif" font-size="14.00" fill="#000000">aws_route_table_association.bastion_subnet_association</text>
</g>
<!-- module.ec2.aws_instance.debian_ec2&#45;&gt;module.network.aws_route_table_association.bastion_subnet_association -->
<g id="edge11" class="edge">
<title>module.ec2.aws_instance.debian_ec2-&gt;module.network.aws_route_table_association.bastion_subnet_association</title>
<path fill="none" stroke="#000000" d="M1648.6555,-346.8091C1609.0216,-333.9357 1553.6515,-316.8673 1504.1808,-304.8963 1486.3862,-300.5903 1467.4487,-296.5613 1448.8541,-292.9122"/>
<polygon fill="#000000" stroke="#000000" points="1449.3528,-289.4439 1438.8702,-290.9822 1448.0241,-296.3167 1449.3528,-289.4439"/>
</g>
<!-- module.network.aws_route_table_association.main_subnet_association -->
<g id="node22" class="node">
<title>module.network.aws_route_table_association.main_subnet_association</title>
<polygon fill="none" stroke="#000000" points="1490.0572,-236.8963 1168.6626,-236.8963 1168.6626,-200.8963 1490.0572,-200.8963 1490.0572,-236.8963"/>
<text text-anchor="middle" x="1329.3599" y="-214.6963" font-family="sans-serif" font-size="14.00" fill="#000000">aws_route_table_association.main_subnet_association</text>
</g>
<!-- module.ec2.aws_instance.debian_ec2&#45;&gt;module.network.aws_route_table_association.main_subnet_association -->
<g id="edge12" class="edge">
<title>module.ec2.aws_instance.debian_ec2-&gt;module.network.aws_route_table_association.main_subnet_association</title>
<path fill="none" stroke="#000000" d="M1679.2969,-346.8219C1643.7551,-320.1316 1572.7173,-270.6696 1504.1808,-245.8963 1497.8742,-243.6167 1491.3715,-241.5296 1484.7521,-239.6186"/>
<polygon fill="#000000" stroke="#000000" points="1485.549,-236.208 1474.9797,-236.943 1483.7005,-242.9596 1485.549,-236.208"/>
</g>
<!-- module.network.aws_security_group.main_sg -->
<g id="node24" class="node">
<title>module.network.aws_security_group.main_sg</title>
<polygon fill="none" stroke="#000000" points="1111.6147,-135.8963 932.2493,-135.8963 932.2493,-99.8963 1111.6147,-99.8963 1111.6147,-135.8963"/>
<text text-anchor="middle" x="1021.932" y="-113.6963" font-family="sans-serif" font-size="14.00" fill="#000000">aws_security_group.main_sg</text>
</g>
<!-- module.ec2.aws_instance.debian_ec2&#45;&gt;module.network.aws_security_group.main_sg -->
<g id="edge13" class="edge">
<title>module.ec2.aws_instance.debian_ec2-&gt;module.network.aws_security_group.main_sg</title>
<path fill="none" stroke="#000000" d="M1688.0748,-346.7807C1658.1263,-310.5725 1585.1916,-229.5208 1504.1808,-191.8963 1381.0753,-134.7214 1223.1293,-120.1299 1122.197,-117.2133"/>
<polygon fill="#000000" stroke="#000000" points="1122.0895,-113.7095 1112.0034,-116.9528 1121.9107,-120.7072 1122.0895,-113.7095"/>
</g>
<!-- module.ec2.aws_kms_key.kms_key -->
<g id="node9" class="node">
<title>module.ec2.aws_kms_key.kms_key</title>
<polygon fill="none" stroke="#000000" points="1096.7978,-544.8963 947.0662,-544.8963 947.0662,-508.8963 1096.7978,-508.8963 1096.7978,-544.8963"/>
<text text-anchor="middle" x="1021.932" y="-522.6963" font-family="sans-serif" font-size="14.00" fill="#000000">aws_kms_key.kms_key</text>
</g>
<!-- module.ec2.aws_secretsmanager_secret.secret -->
<g id="node10" class="node">
<title>module.ec2.aws_secretsmanager_secret.secret</title>
<polygon fill="none" stroke="#000000" points="1432.6842,-544.8963 1226.0356,-544.8963 1226.0356,-508.8963 1432.6842,-508.8963 1432.6842,-544.8963"/>
<text text-anchor="middle" x="1329.3599" y="-522.6963" font-family="sans-serif" font-size="14.00" fill="#000000">aws_secretsmanager_secret.secret</text>
</g>
<!-- module.ec2.aws_secretsmanager_secret.secret&#45;&gt;module.ec2.aws_kms_key.kms_key -->
<g id="edge14" class="edge">
<title>module.ec2.aws_secretsmanager_secret.secret-&gt;module.ec2.aws_kms_key.kms_key</title>
<path fill="none" stroke="#000000" d="M1225.7074,-526.8963C1187.1483,-526.8963 1143.8711,-526.8963 1107.15,-526.8963"/>
<polygon fill="#000000" stroke="#000000" points="1106.976,-523.3964 1096.976,-526.8963 1106.976,-530.3964 1106.976,-523.3964"/>
</g>
<!-- module.ec2.aws_secretsmanager_secret_version.secret -->
<g id="node11" class="node">
<title>module.ec2.aws_secretsmanager_secret_version.secret</title>
<polygon fill="none" stroke="#000000" points="1830.0286,-490.8963 1574.9594,-490.8963 1574.9594,-454.8963 1830.0286,-454.8963 1830.0286,-490.8963"/>
<text text-anchor="middle" x="1702.494" y="-468.6963" font-family="sans-serif" font-size="14.00" fill="#000000">aws_secretsmanager_secret_version.secret</text>
</g>
<!-- module.ec2.aws_secretsmanager_secret_version.secret&#45;&gt;module.ec2.aws_secretsmanager_secret.secret -->
<g id="edge15" class="edge">
<title>module.ec2.aws_secretsmanager_secret_version.secret-&gt;module.ec2.aws_secretsmanager_secret.secret</title>
<path fill="none" stroke="#000000" d="M1577.9864,-490.9151C1534.3314,-497.2328 1485.5603,-504.291 1442.8556,-510.4712"/>
<polygon fill="#000000" stroke="#000000" points="1442.1031,-507.0436 1432.7075,-511.9398 1443.1058,-513.9714 1442.1031,-507.0436"/>
</g>
<!-- module.network.data.aws_iam_policy_document.assume_role -->
<g id="node13" class="node">
<title>module.network.data.aws_iam_policy_document.assume_role</title>
<polygon fill="none" stroke="#000000" points="286.3937,-149.8963 15.8687,-149.8963 15.8687,-113.8963 286.3937,-113.8963 286.3937,-149.8963"/>
<text text-anchor="middle" x="151.1312" y="-127.6963" font-family="sans-serif" font-size="14.00" fill="#000000">data.aws_iam_policy_document.assume_role</text>
</g>
<!-- module.network.data.aws_iam_policy_document.vpc_log_policy -->
<g id="node14" class="node">
<title>module.network.data.aws_iam_policy_document.vpc_log_policy</title>
<polygon fill="none" stroke="#000000" points="609.8456,-95.8963 322.0678,-95.8963 322.0678,-59.8963 609.8456,-59.8963 609.8456,-95.8963"/>
<text text-anchor="middle" x="465.9567" y="-73.6963" font-family="sans-serif" font-size="14.00" fill="#000000">data.aws_iam_policy_document.vpc_log_policy</text>
</g>
<!-- module.network.aws_cloudwatch_log_group.vpc_log_group -->
<g id="node15" class="node">
<title>module.network.aws_cloudwatch_log_group.vpc_log_group</title>
<polygon fill="none" stroke="#000000" points="597.0711,-203.8963 334.8423,-203.8963 334.8423,-167.8963 597.0711,-167.8963 597.0711,-203.8963"/>
<text text-anchor="middle" x="465.9567" y="-181.6963" font-family="sans-serif" font-size="14.00" fill="#000000">aws_cloudwatch_log_group.vpc_log_group</text>
</g>
<!-- module.network.aws_flow_log.vpc_log&#45;&gt;module.network.aws_cloudwatch_log_group.vpc_log_group -->
<g id="edge16" class="edge">
<title>module.network.aws_flow_log.vpc_log-&gt;module.network.aws_cloudwatch_log_group.vpc_log_group</title>
<path fill="none" stroke="#000000" d="M691.464,-144.9682C656.6526,-151.2863 614.1209,-159.0055 575.4138,-166.0306"/>
<polygon fill="#000000" stroke="#000000" points="574.3511,-162.6662 565.1369,-167.8957 575.6012,-169.5537 574.3511,-162.6662"/>
</g>
<!-- module.network.aws_iam_role.vpc_log -->
<g id="node17" class="node">
<title>module.network.aws_iam_role.vpc_log</title>
<polygon fill="none" stroke="#000000" points="537.5894,-149.8963 394.324,-149.8963 394.324,-113.8963 537.5894,-113.8963 537.5894,-149.8963"/>
<text text-anchor="middle" x="465.9567" y="-127.6963" font-family="sans-serif" font-size="14.00" fill="#000000">aws_iam_role.vpc_log</text>
</g>
<!-- module.network.aws_flow_log.vpc_log&#45;&gt;module.network.aws_iam_role.vpc_log -->
<g id="edge17" class="edge">
<title>module.network.aws_flow_log.vpc_log-&gt;module.network.aws_iam_role.vpc_log</title>
<path fill="none" stroke="#000000" d="M691.464,-131.8963C648.0538,-131.8963 592.6382,-131.8963 547.6047,-131.8963"/>
<polygon fill="#000000" stroke="#000000" points="547.5749,-128.3964 537.5748,-131.8963 547.5748,-135.3964 547.5749,-128.3964"/>
</g>
<!-- module.network.aws_vpc.main_vpc -->
<g id="node27" class="node">
<title>module.network.aws_vpc.main_vpc</title>
<polygon fill="none" stroke="#000000" points="527.6479,-257.8963 404.2655,-257.8963 404.2655,-221.8963 527.6479,-221.8963 527.6479,-257.8963"/>
<text text-anchor="middle" x="465.9567" y="-235.6963" font-family="sans-serif" font-size="14.00" fill="#000000">aws_vpc.main_vpc</text>
</g>
<!-- module.network.aws_flow_log.vpc_log&#45;&gt;module.network.aws_vpc.main_vpc -->
<g id="edge18" class="edge">
<title>module.network.aws_flow_log.vpc_log-&gt;module.network.aws_vpc.main_vpc</title>
<path fill="none" stroke="#000000" d="M691.3453,-139.4189C675.3276,-143.4601 659.125,-149.5986 645.651,-158.8963 621.9103,-175.2786 633.7107,-196.9862 609.651,-212.8963 588.6229,-226.8018 562.2834,-233.9816 537.9187,-237.5614"/>
<polygon fill="#000000" stroke="#000000" points="537.4491,-234.0928 527.9794,-238.8442 538.3452,-241.0353 537.4491,-234.0928"/>
</g>
<!-- module.network.aws_iam_role.vpc_log&#45;&gt;module.network.data.aws_iam_policy_document.assume_role -->
<g id="edge19" class="edge">
<title>module.network.aws_iam_role.vpc_log-&gt;module.network.data.aws_iam_policy_document.assume_role</title>
<path fill="none" stroke="#000000" d="M394.124,-131.8963C365.0532,-131.8963 330.3875,-131.8963 296.4735,-131.8963"/>
<polygon fill="#000000" stroke="#000000" points="296.4584,-128.3964 286.4583,-131.8963 296.4583,-135.3964 296.4584,-128.3964"/>
</g>
<!-- module.network.aws_iam_role_policy.vpc_log&#45;&gt;module.network.data.aws_iam_policy_document.vpc_log_policy -->
<g id="edge20" class="edge">
<title>module.network.aws_iam_role_policy.vpc_log-&gt;module.network.data.aws_iam_policy_document.vpc_log_policy</title>
<path fill="none" stroke="#000000" d="M670.5711,-77.8963C654.3937,-77.8963 637.1855,-77.8963 619.8841,-77.8963"/>
<polygon fill="#000000" stroke="#000000" points="619.6937,-74.3964 609.6936,-77.8963 619.6936,-81.3964 619.6937,-74.3964"/>
</g>
<!-- module.network.aws_iam_role_policy.vpc_log&#45;&gt;module.network.aws_iam_role.vpc_log -->
<g id="edge21" class="edge">
<title>module.network.aws_iam_role_policy.vpc_log-&gt;module.network.aws_iam_role.vpc_log</title>
<path fill="none" stroke="#000000" d="M670.5711,-94.7601C631.2848,-101.8903 585.9196,-110.1238 547.903,-117.0236"/>
<polygon fill="#000000" stroke="#000000" points="547.1112,-113.61 537.897,-118.8396 548.3613,-120.4975 547.1112,-113.61"/>
</g>
<!-- module.network.aws_internet_gateway.main_igw -->
<g id="node19" class="node">
<title>module.network.aws_internet_gateway.main_igw</title>
<polygon fill="none" stroke="#000000" points="863.6497,-277.8963 663.3263,-277.8963 663.3263,-241.8963 863.6497,-241.8963 863.6497,-277.8963"/>
<text text-anchor="middle" x="763.488" y="-255.6963" font-family="sans-serif" font-size="14.00" fill="#000000">aws_internet_gateway.main_igw</text>
</g>
<!-- module.network.aws_internet_gateway.main_igw&#45;&gt;module.network.aws_vpc.main_vpc -->
<g id="edge22" class="edge">
<title>module.network.aws_internet_gateway.main_igw-&gt;module.network.aws_vpc.main_vpc</title>
<path fill="none" stroke="#000000" d="M663.1723,-253.1531C622.1534,-250.3958 575.6179,-247.2677 538.0557,-244.7428"/>
<polygon fill="#000000" stroke="#000000" points="537.9235,-241.2261 527.7112,-244.0474 537.4539,-248.2103 537.9235,-241.2261"/>
</g>
<!-- module.network.aws_route_table.main_route_table -->
<g id="node20" class="node">
<title>module.network.aws_route_table.main_route_table</title>
<polygon fill="none" stroke="#000000" points="1126.6461,-243.8963 917.2179,-243.8963 917.2179,-207.8963 1126.6461,-207.8963 1126.6461,-243.8963"/>
<text text-anchor="middle" x="1021.932" y="-221.6963" font-family="sans-serif" font-size="14.00" fill="#000000">aws_route_table.main_route_table</text>
</g>
<!-- module.network.aws_route_table.main_route_table&#45;&gt;module.network.aws_internet_gateway.main_igw -->
<g id="edge23" class="edge">
<title>module.network.aws_route_table.main_route_table-&gt;module.network.aws_internet_gateway.main_igw</title>
<path fill="none" stroke="#000000" d="M917.1855,-239.6764C902.861,-241.5609 888.12,-243.5002 873.7018,-245.397"/>
<polygon fill="#000000" stroke="#000000" points="873.2386,-241.9277 863.7805,-246.7022 874.1517,-248.8679 873.2386,-241.9277"/>
</g>
<!-- module.network.aws_route_table_association.bastion_subnet_association&#45;&gt;module.network.aws_route_table.main_route_table -->
<g id="edge24" class="edge">
<title>module.network.aws_route_table_association.bastion_subnet_association-&gt;module.network.aws_route_table.main_route_table</title>
<path fill="none" stroke="#000000" d="M1211.3795,-254.8593C1186.9723,-251.1279 1161.2927,-247.202 1136.9916,-243.4868"/>
<polygon fill="#000000" stroke="#000000" points="1137.4466,-240.0158 1127.0325,-241.9642 1136.3887,-246.9354 1137.4466,-240.0158"/>
</g>
<!-- module.network.aws_route_table_association.bastion_subnet_association&#45;&gt;module.network.aws_subnet.bastion_subnet -->
<g id="edge25" class="edge">
<title>module.network.aws_route_table_association.bastion_subnet_association-&gt;module.network.aws_subnet.bastion_subnet</title>
<path fill="none" stroke="#000000" d="M1162.6002,-276.6934C1146.7733,-277.0537 1131.1321,-277.4099 1116.3544,-277.7464"/>
<polygon fill="#000000" stroke="#000000" points="1116.1877,-274.2492 1106.27,-277.976 1116.3471,-281.2473 1116.1877,-274.2492"/>
</g>
<!-- module.network.aws_route_table_association.main_subnet_association&#45;&gt;module.network.aws_route_table.main_route_table -->
<g id="edge26" class="edge">
<title>module.network.aws_route_table_association.main_subnet_association-&gt;module.network.aws_route_table.main_route_table</title>
<path fill="none" stroke="#000000" d="M1168.443,-222.5603C1157.874,-222.801 1147.3505,-223.0406 1137.0729,-223.2746"/>
<polygon fill="#000000" stroke="#000000" points="1136.8025,-219.7798 1126.8848,-223.5066 1136.9619,-226.7779 1136.8025,-219.7798"/>
</g>
<!-- module.network.aws_subnet.main_subnet -->
<g id="node26" class="node">
<title>module.network.aws_subnet.main_subnet</title>
<polygon fill="none" stroke="#000000" points="1100.2936,-189.8963 943.5704,-189.8963 943.5704,-153.8963 1100.2936,-153.8963 1100.2936,-189.8963"/>
<text text-anchor="middle" x="1021.932" y="-167.6963" font-family="sans-serif" font-size="14.00" fill="#000000">aws_subnet.main_subnet</text>
</g>
<!-- module.network.aws_route_table_association.main_subnet_association&#45;&gt;module.network.aws_subnet.main_subnet -->
<g id="edge27" class="edge">
<title>module.network.aws_route_table_association.main_subnet_association-&gt;module.network.aws_subnet.main_subnet</title>
<path fill="none" stroke="#000000" d="M1211.3795,-200.8593C1177.7651,-195.7203 1141.7371,-190.2123 1110.2205,-185.394"/>
<polygon fill="#000000" stroke="#000000" points="1110.5693,-181.9067 1100.1552,-183.8552 1109.5113,-188.8263 1110.5693,-181.9067"/>
</g>
<!-- module.network.aws_security_group.bastion_allow_ssh -->
<g id="node23" class="node">
<title>module.network.aws_security_group.bastion_allow_ssh</title>
<polygon fill="none" stroke="#000000" points="881.1622,-203.8963 645.8138,-203.8963 645.8138,-167.8963 881.1622,-167.8963 881.1622,-203.8963"/>
<text text-anchor="middle" x="763.488" y="-181.6963" font-family="sans-serif" font-size="14.00" fill="#000000">aws_security_group.bastion_allow_ssh</text>
</g>
<!-- module.network.aws_security_group.bastion_allow_ssh&#45;&gt;module.network.aws_vpc.main_vpc -->
<g id="edge28" class="edge">
<title>module.network.aws_security_group.bastion_allow_ssh-&gt;module.network.aws_vpc.main_vpc</title>
<path fill="none" stroke="#000000" d="M664.0007,-203.9526C622.7503,-211.4393 575.8013,-219.9602 537.9713,-226.8261"/>
<polygon fill="#000000" stroke="#000000" points="537.273,-223.3956 528.0587,-228.6252 538.523,-230.2831 537.273,-223.3956"/>
</g>
<!-- module.network.aws_security_group.main_sg&#45;&gt;module.network.aws_security_group.bastion_allow_ssh -->
<g id="edge29" class="edge">
<title>module.network.aws_security_group.main_sg-&gt;module.network.aws_security_group.bastion_allow_ssh</title>
<path fill="none" stroke="#000000" d="M947.6127,-135.9189C937.3822,-138.737 927.0544,-141.761 917.325,-144.8963 900.9852,-150.1618 897.7353,-153.8548 881.325,-158.8963 873.9896,-161.1499 866.3459,-163.3105 858.6316,-165.3587"/>
<polygon fill="#000000" stroke="#000000" points="857.6449,-161.9986 848.8401,-167.8915 859.398,-168.7756 857.6449,-161.9986"/>
</g>
<!-- module.network.aws_subnet.bastion_subnet&#45;&gt;module.network.aws_vpc.main_vpc -->
<g id="edge30" class="edge">
<title>module.network.aws_subnet.bastion_subnet-&gt;module.network.aws_vpc.main_vpc</title>
<path fill="none" stroke="#000000" d="M937.568,-284.78C919.0444,-285.6614 899.528,-286.4435 881.325,-286.8963 776.6134,-289.5012 749.5393,-300.2578 645.651,-286.8963 606.6443,-281.8795 564.0194,-270.9754 530.077,-260.9321"/>
<polygon fill="#000000" stroke="#000000" points="530.8753,-257.5175 520.291,-257.9896 528.8596,-264.221 530.8753,-257.5175"/>
</g>
<!-- module.network.aws_subnet.main_subnet&#45;&gt;module.network.aws_vpc.main_vpc -->
<g id="edge31" class="edge">
<title>module.network.aws_subnet.main_subnet-&gt;module.network.aws_vpc.main_vpc</title>
<path fill="none" stroke="#000000" d="M947.6127,-189.9189C937.3822,-192.737 927.0544,-195.761 917.325,-198.8963 900.9852,-204.1618 898.0863,-209.1851 881.325,-212.8963 848.8255,-220.0922 647.9482,-230.916 537.897,-236.418"/>
<polygon fill="#000000" stroke="#000000" points="537.6771,-232.9245 527.8636,-236.9175 538.0252,-239.9159 537.6771,-232.9245"/>
</g>
</g>
</svg>